<?xml version="1.0" standalone="no"?>
<!DOCTYPE svg PUBLIC "-//W3C//DTD SVG 20010904//EN"
 "http://www.w3.org/TR/2001/REC-SVG-20010904/DTD/svg10.dtd">
<svg version="1.0" xmlns="http://www.w3.org/2000/svg"
 width="700.000000pt" height="700.000000pt" viewBox="0 0 700.000000 700.000000"
 preserveAspectRatio="xMidYMid meet">
<metadata>
Created by potrace 1.14, written by Peter Selinger 2001-2017
</metadata>
<g transform="translate(0.000000,700.000000) scale(0.100000,-0.100000)"
fill="#000000" stroke="none">
<path d="M333 6985 c-164 -45 -275 -157 -318 -322 -13 -50 -15 -442 -15 -3163
0 -2721 2 -3113 15 -3163 44 -167 155 -278 322 -322 50 -13 442 -15 3163 -15
2721 0 3113 2 3163 15 167 44 278 155 322 322 13 50 15 442 15 3163 0 3390 4
3154 -56 3271 -52 104 -171 192 -292 218 -39 8 -894 11 -3160 10 -2641 0
-3115 -2 -3159 -14z m6345 -238 c23 -15 54 -46 69 -69 l28 -42 3 -473 3 -473
-3281 0 -3280 0 0 460 c0 364 3 467 13 493 21 48 62 93 110 116 l42 21 3126
-2 3125 -3 42 -28z m100 -3830 l-3 -2553 -28 -42 c-15 -23 -46 -54 -69 -69
l-42 -28 -3136 0 -3136 0 -42 28 c-23 15 -54 46 -69 69 l-28 42 -3 2553 -2
2553 3280 0 3280 0 -2 -2553z"/>
<path d="M658 6545 c-227 -84 -293 -371 -124 -541 72 -71 143 -97 251 -92 123
7 212 63 270 170 41 75 47 187 14 273 -30 80 -104 154 -182 183 -67 25 -171
28 -229 7z"/>
<path d="M1550 6551 c-88 -27 -174 -104 -213 -189 -16 -35 -21 -67 -22 -127 0
-102 31 -171 109 -242 97 -89 11 -83 1201 -83 1190 0 1104 -6 1201 83 78 71
109 140 109 242 -1 60 -6 92 -22 127 -28 62 -96 134 -158 166 l-50 27 -1065 2
c-586 1 -1076 -2 -1090 -6z"/>
<path d="M1135 4568 c-50 -44 -49 -127 1 -167 27 -21 31 -21 1053 -21 957 0
1027 2 1047 18 55 44 59 109 10 158 l-34 34 -1025 0 -1026 0 -26 -22z"/>
<path d="M3754 4556 l-34 -34 0 -1022 0 -1022 34 -34 34 -34 1025 0 c1017 0
1024 0 1050 20 15 12 31 38 37 58 14 51 14 1973 0 2024 -6 20 -22 46 -37 58
-26 20 -33 20 -1050 20 l-1025 0 -34 -34z m1931 -1923 c-3 -10 -186 -12 -877
-11 l-873 3 873 2 872 3 2 873 3 872 3 -865 c1 -476 0 -871 -3 -877z"/>
<path d="M1165 3931 c-79 -33 -92 -149 -22 -191 31 -19 59 -20 1049 -20 l1016
0 31 26 c39 33 50 83 27 131 -31 66 21 63 -1083 62 -549 0 -1007 -4 -1018 -8z"/>
<path d="M1143 3260 c-60 -36 -62 -123 -3 -175 22 -20 38 -20 1024 -23 707 -2
1012 0 1039 8 45 13 77 58 77 108 0 25 -9 43 -34 68 l-34 34 -1018 0 c-992 0
-1020 -1 -1051 -20z"/>
<path d="M1135 2598 c-50 -44 -49 -127 1 -167 27 -21 31 -21 1051 -21 l1025 0
34 34 c49 49 45 114 -10 158 -20 16 -90 18 -1048 18 l-1027 0 -26 -22z"/>
<path d="M1154 1954 c-75 -37 -77 -144 -4 -187 26 -16 199 -17 2350 -17 2524
0 2359 -4 2390 55 23 44 16 94 -19 129 l-31 31 -2328 2 c-2077 2 -2330 1
-2358 -13z"/>
<path d="M1153 1300 c-53 -21 -72 -109 -36 -159 11 -14 35 -31 54 -38 44 -16
4594 -18 4650 -3 42 12 66 36 78 76 12 45 -5 92 -42 114 -32 20 -66 20 -2357
19 -1319 0 -2334 -4 -2347 -9z"/>
</g>
</svg>
