<svg xmlns="http://www.w3.org/2000/svg" width="64" height="64" viewBox="0 0 16.933 16.933" id="lanscape"><path style="line-height:normal;font-variant-ligatures:normal;font-variant-position:normal;font-variant-caps:normal;font-variant-numeric:normal;font-variant-alternates:normal;font-feature-settings:normal;text-indent:0;text-align:start;text-decoration-line:none;text-decoration-style:solid;text-decoration-color:#000;text-transform:none;text-orientation:mixed;white-space:normal;shape-padding:0;isolation:auto;mix-blend-mode:normal;solid-color:#000;solid-opacity:1" d="M2.6464844 3.4394531V4.2324219H3.1757812V3.4394531zM2.6464844 4.7617188V5.5566406H3.1757812V4.7617188zM3.1757812 4.2324219V4.7617188H3.96875V4.2324219zM1.8515625 4.2324219V4.7617188H2.6464844V4.2324219zM11.90625 1.8515625c-.435242 6e-7-.792969.3596799-.792969.7949219 0 .4352419.357727.7929681.792969.7929687.435242 3e-7.792969-.3577262.792969-.7929687 0-.4352425-.357727-.7949221-.792969-.7949219zm0 .5292969c.149259-1e-7.263672.1163656.263672.265625 0 .1492593-.114413.2636719-.263672.2636718-.149259-1e-7-.263672-.1144127-.263672-.2636718 0-.1492592.114413-.2656248.263672-.265625zM3.6953125 7.9375A.26460981.26460981 0 003.4726562 8.0742188L.82617188 12.835938A.26460981.26460981 0 001.0585938 13.228516H15.875a.26460981.26460981 0 00.230469-.392578L13.460938 8.0742188a.26460981.26460981 0 00-.384766-.087891l-1.853516 1.3242188.308594.4296875 1.611328-1.1503906 2.283203 4.1093752H1.5078125L3.75 8.6660156 6.4121094 11.8125 6.8164062 11.470703 3.90625 8.03125A.26460981.26460981 0 003.6953125 7.9375z" color="#000" enable-background="accumulate" font-family="sans-serif" font-weight="400" overflow="visible"></path><path style="line-height:normal;font-variant-ligatures:normal;font-variant-position:normal;font-variant-caps:normal;font-variant-numeric:normal;font-variant-alternates:normal;font-feature-settings:normal;text-indent:0;text-align:start;text-decoration-line:none;text-decoration-style:solid;text-decoration-color:#000;text-transform:none;text-orientation:mixed;white-space:normal;shape-padding:0;isolation:auto;mix-blend-mode:normal;solid-color:#000;solid-opacity:1" d="M7.9179688 3.7050781A.26460981.26460981 0 007.7109375 3.8320312L4.5351562 9.125 4.9902344 9.3964844 7.9394531 4.4824219 11.945312 11.103516 12.396484 10.830078 8.1640625 3.8320312A.26460981.26460981 0 007.9179688 3.7050781zM11.642578 15.082031V15.875h.527344v-.792969zM11.642578 13.757812v.794922h.527344v-.794922zM10.847656 14.552734v.529297h.794922v-.529297zM12.169922 14.552734v.529297h.794922v-.529297zM2.6464844 14.552734c-.4352425 0-.7949221.357727-.7949219.792969-2e-7.435243.3596794.792969.7949219.792969.4352419-.000001.792969-.357727.7929687-.792969 3e-7-.435242-.3577268-.792968-.7929687-.792969zm0 .529297c.1492591 0 .2636719.114413.2636718.263672 1e-7.149259-.1144127.265625-.2636718.265625-.1492594 0-.2656251-.116366-.265625-.265625-1e-7-.149259.1163656-.263672.265625-.263672z" color="#000" enable-background="accumulate" font-family="sans-serif" font-weight="400" overflow="visible"></path><path style="line-height:normal;font-variant-ligatures:normal;font-variant-position:normal;font-variant-caps:normal;font-variant-numeric:normal;font-variant-alternates:normal;font-feature-settings:normal;text-indent:0;text-align:start;text-decoration-line:none;text-decoration-style:solid;text-decoration-color:#000;text-transform:none;text-orientation:mixed;white-space:normal;shape-padding:0;isolation:auto;mix-blend-mode:normal;solid-color:#000;solid-opacity:1" d="M 7.6816406,4.1699219 7.1523438,6.2851562 A 0.26460981,0.26460981 0 0 0 7.25,6.5625 L 8.140625,7.2304688 7.4296875,8.8925781 a 0.26460981,0.26460981 0 0 0 0.089844,0.3183594 L 8.6328125,10 7.9824219,10.964844 8.421875,11.259766 9.2148438,10.080078 A 0.26460981,0.26460981 0 0 0 9.1484375,9.7167969 L 8,8.9042969 8.7089844,7.2480469 A 0.26460981,0.26460981 0 0 0 8.625,6.9316406 L 7.7070312,6.2441406 8.1933594,4.296875 Z" color="#000" enable-background="accumulate" font-family="sans-serif" font-weight="400" overflow="visible"></path></svg>