<?xml version="1.0" encoding="UTF-8"?>
<!DOCTYPE svg PUBLIC "-//W3C//DTD SVG 1.1//EN" "http://www.w3.org/Graphics/SVG/1.1/DTD/svg11.dtd">
<!-- Creator: CorelDRAW -->
<svg xmlns="http://www.w3.org/2000/svg" xml:space="preserve" width="1.76666in" height="1.76666in" version="1.1" style="shape-rendering:geometricPrecision; text-rendering:geometricPrecision; image-rendering:optimizeQuality; fill-rule:evenodd; clip-rule:evenodd"
viewBox="0 0 1767 1767"
 xmlns:xlink="http://www.w3.org/1999/xlink">
 <defs>
  <style type="text/css">
   <![CDATA[
    .fil0 {fill:black}
   ]]>
  </style>
 </defs>
 <g id="Layer_x0020_1">
  <metadata id="CorelCorpID_0Corel-Layer"/>
  <path class="fil0" d="M294 1192c-30,0 -37,-44 -7,-52 36,-10 55,-19 68,-29 -128,-94 -220,-179 -270,-228 8,63 38,168 81,214 12,14 7,36 -10,43l-12 5c29,42 91,123 160,163 17,10 18,33 4,44l-10 8c33,28 96,77 162,104 21,9 18,29 8,45 39,20 120,57 214,68 21,3 23,24 27,41 30,-1 94,-7 188,-36 28,-8 34,19 39,39 45,1 165,-9 244,-114 -64,-17 -126,-36 -186,-58 -57,-14 -118,17 -133,75 -9,34 -61,21 -52,-13 12,-44 41,-80 81,-101 -57,-23 -111,-48 -162,-73 -3,-1 -6,-2 -8,-3 -73,-42 -168,-17 -210,56 -18,30 -64,3 -46,-27 28,-49 75,-84 130,-98 -71,-40 -135,-82 -193,-122 -18,16 -43,32 -100,48 -2,1 -5,1 -7,1zm841 -47c0,-1 0,-2 0,-2 -21,-84 -46,-137 -59,-161 -16,5 -36,14 -48,-3 -57,-76 -130,-128 -166,-151 -9,16 -25,28 -43,15 -57,-43 -131,-74 -172,-89 -1,13 -3,27 -16,33 -8,4 -17,4 -25,-1 -70,-40 -171,-53 -222,-57 8,57 -26,39 -67,39 -77,0 -178,32 -217,54 38,40 134,134 281,241 20,-109 -46,-179 4,-192 14,-4 28,4 32,19 30,113 22,163 11,207 60,42 126,85 200,127 -20,-58 -14,-121 16,-173 17,-30 63,-3 46,26 -42,73 -15,169 49,206 46,23 94,45 144,66 -12,-31 -22,-128 28,-115 14,4 23,18 19,33 -14,49 10,100 54,122 71,26 146,50 225,70 62,-127 7,-242 -17,-282 -42,11 -47,7 -57,-32zm46 -36c32,-4 55,-8 70,-11 -2,-18 -5,-38 15,-46 88,-35 157,-92 189,-122 -14,-12 -22,-31 -4,-45 57,-44 105,-107 130,-143 -12,-5 -24,-9 -27,-24 -2,-9 1,-18 7,-24 57,-57 96,-152 113,-199 -13,-2 -27,-3 -33,-16 -4,-8 -5,-17 0,-25 28,-56 30,-164 22,-228 -36,61 -102,167 -202,291 45,17 100,-4 100,36 0,15 -12,27 -27,27 -59,0 -87,-10 -108,-21 -46,55 -97,111 -155,169 57,-1 110,20 151,60 24,25 -14,62 -38,38 -59,-59 -159,-59 -218,0 -23,24 -85,72 -115,96 2,3 5,6 7,9 17,-6 38,-16 52,3 1,3 39,57 71,175zm452 -937c-52,-14 -192,-18 -258,16 -16,9 -37,-2 -39,-20l-2 -13c-48,17 -142,56 -199,113 -13,13 -36,8 -44,-9l-4 -11c-36,25 -99,73 -143,129 -14,18 -33,11 -46,-3 -29,32 -86,101 -121,189 -8,20 -28,16 -46,15 -6,25 -14,74 -15,146 34,15 73,34 109,58 8,-14 23,-24 39,-15 4,2 78,42 151,115 41,-31 80,-64 117,-97 57,-60 56,-155 -3,-214 -25,-24 13,-62 37,-38 45,45 65,105 60,164 61,-60 114,-119 161,-175 -21,-40 -43,-85 -43,-203 0,-35 53,-35 53,0 0,87 12,127 27,159 114,-142 182,-259 209,-306zm-970 531c3,-106 23,-160 23,-162 8,-22 31,-17 49,-16 54,-123 142,-206 146,-209 13,-13 30,-7 41,5 68,-77 158,-133 163,-136 19,-12 34,2 41,19 90,-71 217,-109 223,-110 16,-5 32,6 34,22l2 11c93,-28 267,-26 304,16 37,40 41,206 12,301 20,3 41,11 34,36 -1,6 -39,133 -111,223 18,7 32,22 20,41 -3,4 -59,95 -136,163 12,11 17,28 5,41 -4,4 -86,92 -209,146 3,45 1,48 -63,60 29,51 85,176 21,318 45,10 91,19 138,26 35,6 26,58 -8,53 -54,-9 -106,-19 -157,-31 -92,142 -251,162 -323,153 -18,-2 -22,-17 -26,-32 -97,27 -163,33 -202,30 -23,-2 -24,-26 -28,-43 -133,-21 -235,-84 -239,-87 -16,-9 -15,-27 -6,-41 -92,-46 -170,-118 -174,-122 -16,-16 -6,-33 8,-45 -92,-68 -161,-181 -164,-187 -9,-13 -3,-32 12,-38l11 -5c-51,-83 -94,-251 -64,-297 30,-48 194,-94 288,-91 -2,-19 0,-42 26,-42 6,1 139,4 244,50 5,-42 31,-32 65,-20z"/>
 </g>
</svg>
